<svg xmlns="http://www.w3.org/2000/svg" xmlns:xlink="http://www.w3.org/1999/xlink" width="54" height="53" viewBox="0 0 54 53"><defs><path id="a" d="M829 5454.66v47.68c0 .43-.35.78-.78.78h-48.44a.78.78 0 0 1-.78-.78v-47.68c0-.43.35-.78.78-.78h48.44c.43 0 .78.35.78.78zm-1.57 46.9v-36.08h-46.87v36.07zm0-37.65v-8.47h-46.87v8.47zm-5.95-5.9c0 .43-.35.78-.78.78h-9.18a.78.78 0 0 1 0-1.57h9.18c.43 0 .78.35.78.79zm4.18 0c0 .43-.35.78-.78.78h-1.67a.78.78 0 0 1 0-1.57h1.67c.43 0 .78.35.78.79zm-17.54 1.67a3.3 3.3 0 0 1-4.38 3.1 3.3 3.3 0 0 1 0-6.2 3.27 3.27 0 0 1 4.38 3.1zm-1.56 0a1.73 1.73 0 0 0-2.3-1.63 1.73 1.73 0 0 0 0 3.25 1.72 1.72 0 0 0 2.3-1.62zm-7.62 0a3.3 3.3 0 1 1-6.6 0 3.3 3.3 0 0 1 6.6 0zm-1.57 0a1.73 1.73 0 1 0-3.45 0 1.73 1.73 0 0 0 3.45 0zm-7.62 0a3.3 3.3 0 1 1-6.59 0 3.3 3.3 0 0 1 6.6 0zm-1.56 0a1.73 1.73 0 1 0-3.46 0 1.73 1.73 0 0 0 3.46 0zm37.73 15.87l-5.9 5.92-4.7 4.7-10.77 10.78-.52.52v.01a.71.71 0 0 1-.06.05l-.02.01-.04.03-.03.02-.03.02a.34.34 0 0 1-.04.02l-.03.01-.05.02-.02.01-.07.02h-.01l-5.9 1.18-3.43.69a.78.78 0 0 1-.54.21h-.61H786.03a.78.78 0 0 1 0-1.56h6.46l1.94-9.72v-.01l.02-.07.01-.02a.64.64 0 0 1 .05-.12l.02-.04.02-.02c0-.02.02-.03.03-.05l.01-.02a.76.76 0 0 1 .05-.05h.01l1.69-1.7h-10.3a.78.78 0 0 1 0-1.57h11.86l5.54-5.54 6.26-6.27h-23.66a.78.78 0 0 1 0-1.57h25.23l5.27-5.28c.3-.3.8-.3 1.1 0l8.27 8.28c.3.3.3.8 0 1.11zm-29.6 13.09l1.55 1.55 14.87-14.9-1.55-1.55-6.64 6.65-5.76 5.77zm2.65 2.66l1.85 1.85 2.63-2.63 5.45-5.47 6.8-6.8-1.85-1.85zm-2.99 6.32l-1.47-1.47-.37 1.84zm5.91-1.18l-1.62-1.63-2.96-2.95-1.62-1.63-.81 4.07 2.95 2.95zm16.46-15.53l-1.55-1.55-6.79 6.8-5.46 5.47-2.62 2.63 1.55 1.55 10.74-10.76zm5.9-5.91l-7.15-7.17-4.8 4.8 2.1 2.1 2.96 2.96 2.1 2.11zm-6.75-3.9l-1.88 1.89a.78.78 0 1 1-1.1-1.11l1.87-1.88c.3-.3.8-.3 1.1 0 .31.3.31.8 0 1.1z"/></defs><g transform="translate(-777 -5452)"><use fill="#00c6ff" xlink:href="#a"/></g></svg>