<svg xmlns="http://www.w3.org/2000/svg" xmlns:xlink="http://www.w3.org/1999/xlink" width="55" height="53" viewBox="0 0 55 53"><defs><path id="a" d="M1198.54 7344.68v16.68l9.57-8.22.04-.03a2.46 2.46 0 0 1 3.38.62 2.39 2.39 0 0 1-.58 3.3l-9.04 7.83h9.01v4.88h-3.3v3.25h-4.94v-3.25h-29.66v3.25h-4.95v-3.25h-3.3v-4.88h2.46a2.46 2.46 0 0 1 2.33-3.25h27.33v-16.93h-15.3v-.81c0-3.1 1.72-6 4.86-8.15 3.04-2.09 7.07-3.24 11.34-3.24 4.28 0 8.31 1.15 11.35 3.24 3.14 2.16 4.86 5.05 4.86 8.15v.81zm4.96-9.8a12.29 12.29 0 0 1 3.56 8.18h5.24c-.45-3.68-3.96-6.78-8.8-8.17zm-4.96 8.18h6.86c-.3-4.7-3.2-8.45-6.86-8.9zm-10 0c.19-3.32 1.54-6.24 3.55-8.17-4.85 1.39-8.35 4.5-8.8 8.17zm8.35 0v-8.88c-3.58.54-6.4 4.26-6.7 8.88zm12.39 23.43h-42.86v1.62h3.3v3.26h1.65v-3.26h32.96v3.26h1.65v-3.26h3.3zm-10.4-3.26h-29.32a.82.82 0 0 0-.83.81c0 .45.37.82.83.82h29.85l10.52-9.1.04-.03a.77.77 0 0 0 .2-1.07.8.8 0 0 0-1.06-.23l-10.24 8.8zm-25.09-35.9c0 2.87-2.37 5.2-5.27 5.2a5.25 5.25 0 0 1-5.28-5.2c0-2.87 2.37-5.2 5.28-5.2 2.9 0 5.27 2.33 5.27 5.2zm-1.65 0a3.6 3.6 0 0 0-3.62-3.58c-2 0-3.63 1.6-3.63 3.58a3.6 3.6 0 0 0 3.63 3.58c2 0 3.62-1.6 3.62-3.58zm3.96-3.83l-1.47.74c-.22-.42-.49-.83-.8-1.2l1.27-1.04c.39.47.72.97 1 1.5zm-1.47 9.68a8.23 8.23 0 0 1-1.4 1.15l-.92-1.35a7.17 7.17 0 0 0 1.14-.93zm2.06-3.5c-.17.59-.4 1.15-.7 1.67l-1.44-.78c.23-.42.42-.87.56-1.34zm-12.37 3.02l-1 1.29a8.55 8.55 0 0 1-1.32-1.24l1.26-1.05c.32.37.68.7 1.06 1zm12.71-5.38v.12l-1.65-.02v-.1c0-.45-.04-.9-.13-1.35l1.61-.32c.11.55.17 1.11.17 1.67zm-9.68 6.69l-.28 1.6a8.7 8.7 0 0 1-1.75-.49l.62-1.5c.45.17.92.3 1.4.39zm3.8 1.31c-.57.19-1.17.31-1.78.37l-.16-1.62c.49-.04.97-.14 1.43-.3zm-1.01 5.05l-1.17 1.15-1.06-1.06-1.65 1.63-1.65-1.63-1.06 1.06-1.17-1.15 2.23-2.2 1.65 1.62 1.65-1.63zm18.6-15.7l-.47 1.56-1.45-.42-.65 2.21-2.24-.65-.42 1.43-1.59-.46.9-2.99 2.23.65.66-2.2z"/></defs><g transform="translate(-1161 -7321)"><use fill="#00c6ff" xlink:href="#a"/></g></svg>