<svg xmlns="http://www.w3.org/2000/svg" xmlns:xlink="http://www.w3.org/1999/xlink" width="47" height="43" viewBox="0 0 47 43"><defs><path id="a" d="M1456.53 1737.85v22.22c0 3.33-4.5 5.93-10.26 5.93s-10.27-2.6-10.27-5.93v-22.22c0-3.32 4.51-5.93 10.27-5.93 5.75 0 10.26 2.6 10.26 5.93zm-1.46 20.87c-1.65 1.71-5.03 2.83-8.8 2.83-3.78 0-6.97-1.12-8.8-2.83v1.35c0 2.41 4.03 4.45 8.8 4.45 4.77 0 8.8-2.04 8.8-4.45zm0-4.44c-1.65 1.7-5.03 2.83-8.8 2.83-3.78 0-6.97-1.12-8.8-2.83v1.35c0 2.4 4.03 4.44 8.8 4.44 4.77 0 8.8-2.03 8.8-4.44zm0-4.45c-1.65 1.71-5.03 2.83-8.8 2.83-3.78 0-6.97-1.12-8.8-2.83v1.35c0 2.41 4.03 4.45 8.8 4.45 4.77 0 8.8-2.04 8.8-4.45zm0-4.44c-1.65 1.7-5.03 2.83-8.8 2.83-3.78 0-6.97-1.12-8.8-2.83v1.35c0 2.4 4.03 4.44 8.8 4.44 4.77 0 8.8-2.03 8.8-4.44zm0-4.44c-1.65 1.7-5.03 2.83-8.8 2.83-3.78 0-6.97-1.12-8.8-2.83v1.34c0 2.41 4.03 4.45 8.8 4.45 4.77 0 8.8-2.04 8.8-4.45zm.09-3.1c0-2.4-4.03-4.44-8.8-4.44-4.77 0-8.8 2.03-8.8 4.44 0 2.4 4.03 4.44 8.8 4.44 4.77 0 8.8-2.03 8.8-4.44zm24.84-5.93v26.67c0 3.32-4.51 5.93-10.27 5.93-5.75 0-10.26-2.6-10.26-5.93v-26.67c0-3.32 4.5-5.92 10.26-5.92s10.27 2.6 10.27 5.92zm-1.47 25.32c-1.65 1.71-5.02 2.83-8.8 2.83-3.77 0-6.96-1.12-8.8-2.83v1.35c0 2.41 4.03 4.45 8.8 4.45 4.77 0 8.8-2.04 8.8-4.45zm0-4.44c-1.65 1.7-5.02 2.83-8.8 2.83-3.77 0-6.96-1.12-8.8-2.83v1.35c0 2.4 4.03 4.44 8.8 4.44 4.77 0 8.8-2.03 8.8-4.44zm0-4.45c-1.65 1.71-5.02 2.83-8.8 2.83-3.77 0-6.96-1.12-8.8-2.83v1.35c0 2.41 4.03 4.45 8.8 4.45 4.77 0 8.8-2.04 8.8-4.45zm0-4.44c-1.65 1.7-5.02 2.83-8.8 2.83-3.77 0-6.96-1.12-8.8-2.83v1.35c0 2.4 4.03 4.44 8.8 4.44 4.77 0 8.8-2.03 8.8-4.44zm0-4.45c-1.65 1.71-5.02 2.83-8.8 2.83-3.77 0-6.96-1.12-8.8-2.83v1.35c0 2.41 4.03 4.45 8.8 4.45 4.77 0 8.8-2.04 8.8-4.45zm0-4.44c-1.65 1.7-5.02 2.83-8.8 2.83-3.77 0-6.96-1.12-8.8-2.83v1.35c0 2.4 4.03 4.44 8.8 4.44 4.77 0 8.8-2.03 8.8-4.44zm.1-3.1c0-2.4-4.04-4.44-8.8-4.44-4.78 0-8.8 2.03-8.8 4.44 0 2.41 4.02 4.45 8.8 4.45 4.77 0 8.8-2.04 8.8-4.45z"/></defs><g transform="translate(-1434 -1724)"><use fill="#00c6ff" xlink:href="#a"/></g></svg>