<svg xmlns="http://www.w3.org/2000/svg" xmlns:xlink="http://www.w3.org/1999/xlink" width="50" height="51" viewBox="0 0 50 51"><defs><path id="a" d="M528 7346.48v24.5a1.02 1.02 0 0 1-2.04 0v-8.17h-8.18v8.17a1.02 1.02 0 0 1-2.04 0v-12.25c0-.57.46-1.02 1.02-1.02h9.2v-11.23a1.02 1.02 0 0 1 2.04 0zm-2.04 13.27h-8.18v1.02h8.18zm-32.7-1.02v12.25a1.02 1.02 0 0 1-2.04 0v-8.17h-8.18v8.17a1.02 1.02 0 0 1-2.04 0v-24.5a1.02 1.02 0 0 1 2.04 0v11.23h9.2c.56 0 1.02.45 1.02 1.02zm-2.04 1.02h-8.18v1.02h8.18zm36.78-25.52v2.04c0 .56-.46 1.02-1.02 1.02h-21.46v13.27h13.29c.56 0 1.02.46 1.02 1.02v3.06c0 .57-.46 1.03-1.02 1.03h-11.24v14.29h3.06a1.02 1.02 0 1 1 0 2.04h-12.26a1.02 1.02 0 1 1 0-2.04h3.07v-14.3H490.2c-.57 0-1.03-.45-1.03-1.02v-3.06c0-.56.46-1.02 1.03-1.02h13.28v-13.27h-21.46c-.56 0-1.02-.46-1.02-1.02v-2.04c0-.43.27-.81.67-.96l21.8-7.92v-1.33a1.02 1.02 0 0 1 2.05 0v1.33l21.8 7.92c.41.15.68.53.68.96zm-22.48 21.44h-2.04v14.29h2.04zm-14.3-3.07v1.03h26.56v-1.03zm34.74-17.66l-21.46-7.79-21.46 7.8v.3h42.92z"/></defs><g transform="translate(-480 -7322)"><use fill="#00c6ff" xlink:href="#a"/></g></svg>