<svg xmlns="http://www.w3.org/2000/svg" xmlns:xlink="http://www.w3.org/1999/xlink" width="17" height="16" viewBox="0 0 17 16"><defs><path id="a" d="M1347.37 34.9a4.96 4.96 0 0 1-.38-2.15c.04-.52.25-.96.62-1.33l1.01-1c.3-.28.62-.42.97-.42.34 0 .67.14.95.41.19.17.37.36.55.54.1.1.18.2.28.28l.8.8c.3.3.45.64.45.98 0 .34-.15.68-.45.97l-.24.25c-.23.23-.47.47-.73.7.18.42.44.83.83 1.32a10.24 10.24 0 0 0 2.75 2.38l.27.14.97-.97c.28-.28.62-.43.96-.43.35 0 .68.15.96.43l1.62 1.62c.58.58.58 1.34 0 1.94l-.37.38c-.2.18-.37.35-.53.54v.01c-.45.48-.99.7-1.66.7h-.19a7.2 7.2 0 0 1-2.58-.76 13.84 13.84 0 0 1-4.61-3.59 12.51 12.51 0 0 1-2.25-3.74zm.62-.22a12 12 0 0 0 2.14 3.55 13.16 13.16 0 0 0 4.4 3.42c.61.29 1.44.63 2.33.7h.14c.48 0 .85-.16 1.16-.5.18-.2.38-.4.57-.58l.36-.36c.33-.34.33-.69 0-1.01l-1.63-1.62c-.1-.12-.27-.24-.48-.24-.17 0-.34.08-.5.24l-1 1c-.05.05-.2.19-.41.19a.57.57 0 0 1-.26-.07l-.03-.02-.3-.16c-.12-.06-.24-.12-.36-.2-.94-.59-1.8-1.36-2.6-2.36a6.33 6.33 0 0 1-.96-1.54v-.02c-.06-.16-.1-.37.13-.6h.01l.75-.73.25-.25c.17-.17.26-.34.26-.5 0-.17-.1-.34-.26-.51l-.8-.8-.29-.29-.53-.53a.7.7 0 0 0-.5-.23.73.73 0 0 0-.49.23l-1 1c-.27.26-.4.56-.44.92-.04.54.06 1.13.34 1.87z"/></defs><g transform="translate(-1345 -28)"><use xlink:href="#a"/></g></svg>