<svg xmlns="http://www.w3.org/2000/svg" xmlns:xlink="http://www.w3.org/1999/xlink" width="58" height="62" viewBox="0 0 58 62"><defs><path id="a" d="M1444 7320.69c0 .42-.35.76-.78.76h-1.33v6.15c0 .43-.35.77-.78.77h-7.19a.77.77 0 0 1-.77-.77v-6.14h-1.35c.4.96.41 2.07-.02 3.11l-6.52 15.54c-.26.63-.4 1.3-.4 1.98l.04 26.37c0 1.95-1.6 3.54-3.57 3.54a3.56 3.56 0 0 1-3.58-3.54v-9.17a1.25 1.25 0 1 0-2.51 0v9.17c0 1.95-1.6 3.54-3.57 3.54a3.56 3.56 0 0 1-3.57-3.54l-.01-26.38c0-.68-.14-1.34-.4-1.96l-6.52-15.55a4.07 4.07 0 0 1-.03-3.11h-1.29v6.14c0 .43-.34.77-.77.77h-7.2a.77.77 0 0 1-.77-.77v-6.15h-1.33a.77.77 0 0 1-.78-.76c0-.43.35-.77.78-.77h1.33v-6.15c0-.43.35-.77.78-.77h7.19c.43 0 .77.34.77.77v6.15h2.39a4.23 4.23 0 0 1 2.76-1.05c1.03 0 2 .39 2.76 1.05h17.43a4.2 4.2 0 0 1 5.52 0h2.44v-6.15c0-.43.34-.77.77-.77h7.2c.42 0 .77.34.77.77v6.15h1.33c.43 0 .78.34.78.77zm-51.33 6.14h2.04v-12.3h-2.04zm5.63 0v-12.3h-2.04v12.3zm11.6 6.14c0 3.6 2.96 6.54 6.6 6.54 3.64 0 6.6-2.94 6.6-6.54 0-3.61-2.96-6.54-6.6-6.54a6.58 6.58 0 0 0-6.6 6.54zm14.18-11.51h-15.21l2.5 5.23a8.15 8.15 0 0 1 10.22-.03zm5.09-.74a2.62 2.62 0 0 0-3.57 1.17l-2.84 5.9a8 8 0 0 1 1.9 5.17 8.13 8.13 0 0 1-8.16 8.08 8.13 8.13 0 0 1-8.15-8.08 8 8 0 0 1 1.86-5.12l-2.86-5.96a2.62 2.62 0 0 0-3.57-1.16 2.56 2.56 0 0 0-1.18 3.26l6.53 15.55c.34.81.51 1.67.51 2.55l.02 26.38a2.01 2.01 0 1 0 4.04 0v-9.17a2.8 2.8 0 0 1 2.8-2.78 2.8 2.8 0 0 1 2.8 2.78v9.17c0 1.1.91 2 2.03 2 1.1 0 2.01-.9 2.01-2l-.03-26.37c0-.88.17-1.75.52-2.58l6.52-15.53a2.56 2.56 0 0 0-1.18-3.26zm5.53 6.11h2.04v-12.3h-2.04zm5.63-12.3h-2.04v12.3h2.04z"/></defs><g transform="translate(-1387 -7311)"><use fill="#00c6ff" xlink:href="#a"/></g></svg>