<svg xmlns="http://www.w3.org/2000/svg" xmlns:xlink="http://www.w3.org/1999/xlink" width="55" height="54" viewBox="0 0 55 54"><defs><path id="a" d="M945.2 7348.33v5.1a.85.85 0 1 1-1.7 0v-4.25h-1.7v.85a.85.85 0 1 1-1.7 0v-1.7c0-.47.38-.85.85-.85h3.4c.47 0 .85.38.85.85zm11.94-24.08a.85.85 0 0 1 .81-.59h1.18l.61-1.23c.29-.58 1.23-.58 1.52 0l.62 1.23h1.17a.85.85 0 0 1 .54 1.51l-.94.76.37 1.1a.85.85 0 0 1-1.15 1.05l-1.34-.6-1.36.6a.85.85 0 0 1-.92-.15.85.85 0 0 1-.23-.9l.4-1.12-.97-.71a.85.85 0 0 1-.3-.95zm3.04.93c.1.17.13.36.1.56a.81.81 0 0 1 .53 0 .85.85 0 0 1 .1-.5.85.85 0 0 1-.32-.35l-.09-.18-.09.18a.86.86 0 0 1-.23.29zm-16.68 38.46a4.26 4.26 0 0 1-3.4 4.17v4.34a.85.85 0 1 1-1.7 0v-4.34a4.26 4.26 0 0 1-3.4-4.17c0-.11.05-11.06 4.25-11.06s4.25 10.95 4.25 11.06zm-1.7 0c0-4.24-1.14-9.36-2.55-9.36-1.42 0-2.55 5.12-2.55 9.36a2.55 2.55 0 0 0 5.1 0zm7.69-39.4a.85.85 0 0 1 .8-.58h1.18l.62-1.23c.29-.58 1.23-.58 1.52 0l.61 1.23h1.18a.85.85 0 0 1 .53 1.51l-.93.76.37 1.1a.85.85 0 0 1-1.15 1.05l-1.34-.6-1.36.6a.85.85 0 0 1-.92-.15.85.85 0 0 1-.23-.9l.4-1.12-.97-.71a.85.85 0 0 1-.31-.95zm3.04.94c.1.17.13.36.1.56a.81.81 0 0 1 .53 0 .85.85 0 0 1 .1-.5.85.85 0 0 1-.32-.35l-.1-.18-.08.18a.87.87 0 0 1-.23.29zm13.11-.93a.85.85 0 0 1 .81-.59h1.18l.61-1.23c.3-.58 1.23-.58 1.52 0l.62 1.23h1.17a.85.85 0 0 1 .54 1.51l-.94.76.38 1.1a.85.85 0 0 1-1.16 1.05l-1.34-.6-1.36.6a.85.85 0 0 1-.92-.15.85.85 0 0 1-.22-.9l.4-1.12-.98-.71a.85.85 0 0 1-.3-.95zm3.04.93c.1.17.13.36.1.56a.81.81 0 0 1 .53 0 .85.85 0 0 1 .1-.5.85.85 0 0 1-.32-.35l-.09-.18-.09.18a.87.87 0 0 1-.23.29zm-27.7-.93a.85.85 0 0 1 .82-.59h1.17l.62-1.23c.29-.58 1.23-.58 1.52 0l.61 1.23h1.18a.85.85 0 0 1 .53 1.51l-.94.76.38 1.1a.85.85 0 0 1-1.15 1.05l-1.34-.6-1.36.6a.85.85 0 0 1-.92-.15.85.85 0 0 1-.23-.9l.4-1.12-.97-.71a.85.85 0 0 1-.31-.95zm3.05.93c.1.17.13.36.1.56a.81.81 0 0 1 .52 0 .85.85 0 0 1 .1-.5.85.85 0 0 1-.31-.35l-.1-.18-.08.18a.86.86 0 0 1-.23.29zm30.12-.93a.85.85 0 0 1 .8-.59h1.18l.61-1.23c.3-.58 1.24-.58 1.52 0l.62 1.23h1.17a.85.85 0 0 1 .54 1.51l-.94.76.38 1.1a.85.85 0 0 1-1.16 1.05l-1.33-.6-1.37.6a.85.85 0 0 1-1.15-1.06l.4-1.11-.97-.71a.85.85 0 0 1-.3-.95zm3.03.93c.1.17.13.36.1.56a.81.81 0 0 1 .53 0 .85.85 0 0 1 .1-.5.85.85 0 0 1-.32-.35l-.09-.18-.09.18a.86.86 0 0 1-.23.29zm8.83 45.27c0 1.4-1.15 2.55-2.55 2.55h-6.8a2.55 2.55 0 1 1 .43-5.07 3.38 3.38 0 1 1 5.93 0 2.55 2.55 0 0 1 2.99 2.51zm-1.7 0c0-.63-.76-1.07-1.32-.72a.85.85 0 0 1-1.29-.52 1.69 1.69 0 0 0-3.3 0 .85.85 0 0 1-1.29.52.85.85 0 0 0-1.3.72c0 .47.37.85.84.85h6.8c.47 0 .86-.38.86-.85zm-39.11-32.33v5.1c0 .48-.38.86-.85.86h-3.4a.85.85 0 0 1-.85-.85v-5.1c0-.48.38-.86.85-.86h3.4c.47 0 .85.38.85.85zm-1.7 4.25v-3.4h-1.7v3.4zm28.9-7.65v32.32a.85.85 0 1 1-1.7 0v-32.32a.85.85 0 0 1 1.7 0zm3.4 13.6c0-.46.38-.84.85-.84h3.4c.47 0 .85.38.85.85v5.1c0 .47-.38.85-.85.85h-3.4a.85.85 0 0 1-.85-.85zm1.7 4.26h1.7v-3.4h-1.7zm8.5-22.97v36.58a.85.85 0 1 1-1.7 0v-34.02h-47.6v17.86a.85.85 0 1 1-1.7 0v-20.42a.85.85 0 1 1 1.7 0v.86h47.6v-.86a.85.85 0 1 1 1.7 0zm-10.2 28.93c0-.47.38-.85.85-.85h3.4c.47 0 .85.38.85.85v5.1c0 .47-.38.85-.85.85h-3.4a.85.85 0 0 1-.85-.85zm1.7 4.25h1.7v-3.4h-1.7zm-1.7-19.56v-5.1c0-.48.38-.86.85-.86h3.4c.47 0 .85.38.85.85v5.1c0 .48-.38.86-.85.86h-3.4a.85.85 0 0 1-.85-.85zm1.7-.86h1.7v-3.4h-1.7zm-15.3.86v-5.1c0-.48.38-.86.85-.86h3.4c.47 0 .85.38.85.85v5.1c0 .48-.38.86-.85.86h-3.4a.85.85 0 0 1-.85-.85zm1.7-4.26v3.4h1.7v-3.4zm-14.45 28.92a.85.85 0 0 1-.85-.85v-32.32a.85.85 0 0 1 1.7 0v32.32c0 .47-.38.85-.85.85zm22.95 2.56c0 .47-.38.85-.85.85H948.6v.85a.85.85 0 1 1-1.7 0v-1.7c0-.47.38-.85.85-.85h23.8c.47 0 .85.38.85.85zm-18.7-17.02v-5.1c0-.47.38-.85.85-.85h3.4c.47 0 .85.38.85.85v5.1c0 .47-.38.85-.85.85h-3.4a.85.85 0 0 1-.85-.85zm1.7-.85h1.7v-3.4h-1.7zm-1.7-9.35v-5.1c0-.48.38-.86.85-.86h3.4c.47 0 .85.38.85.85v5.1c0 .48-.38.86-.85.86h-3.4a.85.85 0 0 1-.85-.85zm1.7-.86h1.7v-3.4h-1.7zm-2.55 15.32h15.3a.85.85 0 0 1 0 1.7h-.85v7.65a.85.85 0 1 1-1.7 0v-7.65h-4.25v3.4a.85.85 0 1 1 0 1.7v2.55a.85.85 0 1 1-1.7 0v-2.55a.85.85 0 1 1 0-1.7v-3.4h-4.25v7.65a.85.85 0 1 1-1.7 0v-7.65h-.85a.85.85 0 1 1 0-1.7zm9.35-4.26v-5.1c0-.47.38-.85.85-.85h3.4c.47 0 .85.38.85.85v5.1c0 .47-.38.85-.85.85h-3.4a.85.85 0 0 1-.85-.85zm1.7-4.25v3.4h1.7v-3.4z"/></defs><g transform="translate(-933 -7320)"><use fill="#00c6ff" xlink:href="#a"/></g></svg>