<svg xmlns="http://www.w3.org/2000/svg" xmlns:xlink="http://www.w3.org/1999/xlink" width="40" height="44" viewBox="0 0 40 44"><defs><path id="a" d="M623 1747c0 5.46-2.43 10.57-6.67 14.06v5.3a.64.64 0 0 1-.65.64.65.65 0 0 1-.43-.17l-1.43-1.3-1.43 1.3a.65.65 0 0 1-.87 0l-1.43-1.3-1.42 1.3a.65.65 0 0 1-.88 0l-1.43-1.3-1.42 1.3a.65.65 0 0 1-.88 0l-1.43-1.3-1.42 1.3a.65.65 0 0 1-.88 0l-1.42-1.3-1.43 1.3a.65.65 0 0 1-.88 0l-1.42-1.3-1.43 1.3a.65.65 0 0 1-.7.12.64.64 0 0 1-.38-.59v-5.3a18.15 18.15 0 0 1 0-28.13v-5.3c0-.25.15-.48.39-.58.23-.1.5-.05.7.12l1.42 1.3 1.43-1.3a.65.65 0 0 1 .87 0l1.43 1.3 1.42-1.3a.65.65 0 0 1 .88 0l1.43 1.3 1.42-1.3a.65.65 0 0 1 .88 0l1.42 1.3 1.43-1.3a.65.65 0 0 1 .88 0l1.42 1.3 1.43-1.3a.65.65 0 0 1 .88 0l1.42 1.3 1.43-1.3a.65.65 0 0 1 .7-.12c.23.1.38.33.38.59v5.3c4.24 3.48 6.67 8.6 6.67 14.06zm-30.33-12.36a16.86 16.86 0 0 0 0 24.72v-3.16a14.8 14.8 0 0 1-2.55-13.61c.1-.34.46-.53.8-.42.34.1.53.46.43.8a13.43 13.43 0 0 0 1.32 10.98zm22.37-5.55l-.78.72a.65.65 0 0 1-.88 0l-1.42-1.3-1.43 1.3a.65.65 0 0 1-.87 0l-1.43-1.3-1.43 1.3a.65.65 0 0 1-.87 0l-1.43-1.3-1.43 1.3a.65.65 0 0 1-.87 0l-1.43-1.3-1.43 1.3a.65.65 0 0 1-.87 0l-1.43-1.3-1.42 1.3a.65.65 0 0 1-.88 0l-.78-.72v35.81l.78-.71a.65.65 0 0 1 .88 0l1.42 1.3 1.43-1.3a.65.65 0 0 1 .87 0l1.43 1.3 1.43-1.3a.65.65 0 0 1 .87 0l1.43 1.3 1.43-1.3a.65.65 0 0 1 .87 0l1.43 1.3 1.42-1.3a.65.65 0 0 1 .88 0l1.43 1.3 1.42-1.3a.65.65 0 0 1 .88 0l.78.71zm6.67 17.9c0-4.71-1.95-9.14-5.38-12.35v3.16a14.82 14.82 0 0 1 2.55 13.61.65.65 0 0 1-1.23-.38 13.44 13.44 0 0 0-1.32-10.98v19.3a16.85 16.85 0 0 0 5.38-12.35zm-11.14-8.54a.65.65 0 0 1-.91.04l-1.43-1.3-1.43 1.3a.65.65 0 0 1-.87 0l-1.43-1.3-1.43 1.3a.65.65 0 0 1-.87 0l-1.43-1.3-1.43 1.3a.65.65 0 0 1-.9-.04.63.63 0 0 1 .03-.9l1.86-1.7a.65.65 0 0 1 .88 0l1.43 1.3 1.42-1.3a.65.65 0 0 1 .88 0l1.42 1.3 1.43-1.3a.65.65 0 0 1 .88 0l1.86 1.7c.26.24.28.64.04.9zm.17 2.85c0 .35-.3.63-.65.63h-1.14a.64.64 0 0 1-.65-.63c0-.36.29-.64.65-.64h1.14c.36 0 .65.28.65.64zm-3.73 0c0 .35-.29.63-.65.63h-7.45a.64.64 0 0 1-.65-.63c0-.36.29-.64.65-.64h7.45c.36 0 .65.28.65.64zm3.73 2.55c0 .35-.3.64-.65.64h-1.14a.64.64 0 0 1-.65-.64c0-.35.29-.64.65-.64h1.14c.36 0 .65.29.65.64zm-3.73 0c0 .35-.29.64-.65.64h-7.45a.64.64 0 0 1-.65-.64c0-.35.29-.64.65-.64h7.45c.36 0 .65.29.65.64zm3.73 2.55c0 .35-.3.64-.65.64h-1.14a.64.64 0 0 1-.65-.64c0-.35.29-.63.65-.63h1.14c.36 0 .65.28.65.63zm-3.73 0c0 .35-.29.64-.65.64h-7.45a.64.64 0 0 1-.65-.64c0-.35.29-.63.65-.63h7.45c.36 0 .65.28.65.63zm3.73 2.56c0 .35-.3.63-.65.63h-1.14a.64.64 0 0 1-.65-.63c0-.36.29-.64.65-.64h1.14c.36 0 .65.28.65.64zm-3.73 0c0 .35-.29.63-.65.63h-7.45a.64.64 0 0 1-.65-.63c0-.36.29-.64.65-.64h7.45c.36 0 .65.28.65.64zm3.73 8.72c0 .35-.3.64-.65.64h-1.14a.64.64 0 0 1-.65-.64c0-.35.29-.64.65-.64h1.14c.36 0 .65.29.65.64zm-3.73 0c0 .35-.29.64-.65.64h-7.45a.64.64 0 0 1-.65-.64c0-.35.29-.64.65-.64h7.45c.36 0 .65.29.65.64z"/></defs><g transform="translate(-584 -1725)"><use fill="#00c6ff" xlink:href="#a"/></g></svg>