<svg xmlns="http://www.w3.org/2000/svg" xmlns:xlink="http://www.w3.org/1999/xlink" width="41" height="44" viewBox="0 0 41 44"><defs><path id="a" d="M191.93 1738.08a3.95 3.95 0 0 0-3.93-3.96c-1.39 0-2.68.74-3.4 1.94-.17.3-.56.4-.87.23a.65.65 0 0 1-.22-.89 5.24 5.24 0 0 1 4.49-2.57 5.24 5.24 0 0 1 2.74 9.72.63.63 0 0 1-.89-.2c-.18-.31-.09-.7.21-.9a3.95 3.95 0 0 0 1.87-3.37zm8.07-7.92v31.67c0 2.3-1.86 4.17-4.14 4.17h-15.73a.64.64 0 0 1-.64-.65c0-.35.29-.64.64-.64h15.73c1.38 0 2.53-.98 2.8-2.29H186.7a.64.64 0 1 1 0-1.29h12v-30.27h-21.43v12.34c0 .36-.29.65-.64.65a.64.64 0 0 1-.64-.65v-13.04c0-2.3 1.85-4.16 4.13-4.16h15.73a4.16 4.16 0 0 1 4.14 4.16zm-22.66-.59h21.32a2.86 2.86 0 0 0-2.8-2.28h-15.73c-1.37 0-2.52.98-2.8 2.28zm7.6 31.26a8.12 8.12 0 0 1-6.76 2.4l-2.57 2.58a.64.64 0 0 1-.9 0 .65.65 0 0 1 0-.92l2.79-2.8a.64.64 0 0 1 .55-.19c2.2.35 4.38-.37 5.98-1.98l4.86-4.9c.48-.48.48-1.27 0-1.76a1.24 1.24 0 0 0-1.76 0 .64.64 0 0 1-.9 0 .64.64 0 0 1 0-.91c.48-.49.48-1.28 0-1.77a1.24 1.24 0 0 0-1.76 0 .64.64 0 0 1-1.09-.45c0-.17.06-.33.19-.46.48-.48.48-1.28 0-1.76a1.23 1.23 0 0 0-1.76 0 .64.64 0 0 1-1.09-.46c0-.16.06-.33.19-.45l7.86-7.92c.48-.49.48-1.28 0-1.77a1.24 1.24 0 0 0-1.75 0l-12.72 12.8a6.95 6.95 0 0 0-1.98 6.03c.04.2-.03.41-.18.56l-9.05 9.1a.64.64 0 0 1-.9 0 .65.65 0 0 1 0-.9L171 1756a8.24 8.24 0 0 1 2.38-6.8l12.72-12.8a2.51 2.51 0 0 1 3.57 0c.98.98.98 2.6 0 3.58l-6.31 6.35a2.54 2.54 0 0 1 1.84 2.59h.14a2.54 2.54 0 0 1 2.52 2.68 2.51 2.51 0 0 1 2.66 2.54c0 .67-.26 1.31-.74 1.79z"/></defs><g transform="translate(-160 -1724)"><use fill="#00c6ff" xlink:href="#a"/></g></svg>