<svg xmlns="http://www.w3.org/2000/svg" xmlns:xlink="http://www.w3.org/1999/xlink" width="53" height="57" viewBox="0 0 53 57"><defs><path id="a" d="M504.89 5465.9c0-2.92-2.33-5.3-5.18-5.3-1.82 0-3.53 1-4.46 2.6a.83.83 0 0 1-1.16.3.87.87 0 0 1-.3-1.18 6.87 6.87 0 0 1 5.92-3.44 6.96 6.96 0 0 1 6.86 7.03c0 2.45-1.22 4.69-3.26 5.98a.83.83 0 0 1-1.16-.28.87.87 0 0 1 .27-1.19 5.3 5.3 0 0 0 2.47-4.51zm10.61-10.59v42.37a5.51 5.51 0 0 1-5.44 5.57h-20.7a.85.85 0 0 1-.85-.86c0-.48.38-.87.85-.87h20.7c1.8 0 3.32-1.3 3.67-3.05h-15.71a.85.85 0 0 1-.85-.86c0-.48.38-.87.85-.87h15.8v-40.5H485.6v16.52c0 .48-.38.86-.84.86a.85.85 0 0 1-.84-.86v-17.45a5.51 5.51 0 0 1 5.44-5.57h20.7c3 0 5.44 2.5 5.44 5.57zm-29.82-.79h28.05a3.79 3.79 0 0 0-3.67-3.05h-20.7a3.79 3.79 0 0 0-3.68 3.05zm10 41.82a10.58 10.58 0 0 1-8.9 3.2l-3.37 3.46a.83.83 0 0 1-1.2 0 .88.88 0 0 1 0-1.22l3.68-3.76c.19-.2.46-.29.73-.24 2.9.46 5.76-.5 7.87-2.66l6.39-6.54a1.7 1.7 0 0 0 0-2.36 1.6 1.6 0 0 0-2.3 0 .83.83 0 0 1-1.2 0 .87.87 0 0 1 0-1.22 1.7 1.7 0 0 0 0-2.37 1.6 1.6 0 0 0-2.3 0 .83.83 0 0 1-1.2 0 .87.87 0 0 1 0-1.22 1.7 1.7 0 0 0 0-2.36 1.6 1.6 0 0 0-2.3 0 .83.83 0 0 1-1.2 0 .88.88 0 0 1 0-1.22l10.35-10.59a1.7 1.7 0 0 0 0-2.36 1.6 1.6 0 0 0-2.31 0l-16.74 17.13a9.4 9.4 0 0 0-2.6 8.06.87.87 0 0 1-.23.74L466.94 5503a.83.83 0 0 1-1.2 0 .88.88 0 0 1 0-1.22l11.62-11.89c-.38-3.36.74-6.66 3.13-9.1l16.74-17.13a3.27 3.27 0 0 1 4.69 0 3.46 3.46 0 0 1 0 4.8l-8.3 8.5c.53.15 1.03.44 1.45.87.7.71 1.02 1.66.97 2.6l.19-.01c.88 0 1.72.35 2.34 1 .7.7 1.02 1.65.97 2.59.9-.06 1.84.27 2.53.98.63.65.97 1.5.97 2.4 0 .91-.34 1.77-.97 2.4z"/></defs><g transform="translate(-464 -5448)"><use fill="#00c6ff" xlink:href="#a"/></g></svg>