<?xml version="1.0" encoding="iso-8859-1"?>
<!-- Generator: Adobe Illustrator 19.0.0, SVG Export Plug-In . SVG Version: 6.00 Build 0)  -->
<svg version="1.1" id="Capa_1" xmlns="http://www.w3.org/2000/svg" xmlns:xlink="http://www.w3.org/1999/xlink" x="0px" y="0px"
	 viewBox="0 0 512 512" style="enable-background:new 0 0 512 512;" width="58" height="60" xml:space="preserve" fill="#00c6ff">
<g>
	<g>
		<path d="M258.08,298.431c-40.51,0-73.469,32.958-73.469,73.47c0,40.511,32.958,73.469,73.469,73.469s73.47-32.958,73.47-73.469
			S298.592,298.431,258.08,298.431z M258.08,430.363c-32.236,0-58.461-26.225-58.461-58.461c0-32.236,26.225-58.462,58.461-58.462
			c32.236,0,58.462,26.226,58.462,58.462C316.542,404.138,290.315,430.363,258.08,430.363z"/>
	</g>
</g>
<g>
	<g>
		<path d="M226.139,217.347c-17.594,0-31.908,14.314-31.908,31.907c0,17.593,14.314,31.907,31.908,31.907
			c17.594,0,31.907-14.314,31.907-31.907C258.046,231.661,243.732,217.347,226.139,217.347z M226.14,266.153
			c-9.318,0-16.9-7.58-16.9-16.899c0-9.319,7.581-16.899,16.9-16.899c9.319,0,16.899,7.58,16.899,16.899
			C243.039,258.573,235.459,266.153,226.14,266.153z"/>
	</g>
</g>
<g>
	<g>
		<path d="M294.239,217.348c-17.593,0-31.907,14.314-31.907,31.907s14.314,31.907,31.907,31.907s31.907-14.314,31.907-31.907
			S311.832,217.348,294.239,217.348z M294.239,266.153c-9.318,0-16.899-7.58-16.899-16.899c0-9.318,7.58-16.899,16.899-16.899
			c9.318,0,16.899,7.58,16.899,16.899C311.138,258.573,303.557,266.153,294.239,266.153z"/>
	</g>
</g>
<g>
	<g>
		<path d="M258.08,342.359c-16.29,0-29.543,13.254-29.543,29.544c0,16.29,13.252,29.543,29.543,29.543
			c16.29,0,29.544-13.253,29.544-29.543C287.624,355.613,274.37,342.359,258.08,342.359z M258.08,386.436
			c-8.015,0-14.534-6.521-14.534-14.534c-0.001-8.015,6.52-14.535,14.534-14.535c8.016,0,14.535,6.521,14.535,14.535
			S266.094,386.436,258.08,386.436z"/>
	</g>
</g>
<g>
	<g>
		<path d="M377.402,26.777c-14.805,0-28.198,6.134-37.796,15.982v-0.117c0-2.085-0.868-4.076-2.395-5.496
			c-1.527-1.419-3.572-2.127-5.655-1.988l-73.449,5.364c-4.134,0.302-7.24,3.898-6.939,8.031c0.302,4.134,3.898,7.244,8.031,6.939
			l65.399-4.777v57.929L160.311,96.641c-8.77-0.864-15.374-8.145-15.374-16.966c0-8.82,6.605-16.101,15.375-16.964l34.029-2.485
			c4.133-0.303,7.239-3.898,6.938-8.032c-0.303-4.133-3.889-7.248-8.032-6.938l-34.116,2.492c-0.053,0.004-0.104,0.009-0.157,0.014
			c-13.987,1.319-25.066,11.313-28.172,24.41H69.691C31.263,72.172,0,103.435,0,141.862c0,38.428,31.263,69.692,69.691,69.692
			h67.741c4.145,0,7.504-3.359,7.504-7.504s-3.359-7.504-7.504-7.504H69.691c-30.151,0-54.682-24.531-54.682-54.683
			c0-30.152,24.531-54.682,54.682-54.682h61.11c3.105,13.096,14.185,23.09,28.171,24.41c0.053,0.005,0.105,0.01,0.159,0.014
			l172.424,12.593c0.183,0.013,0.364,0.02,0.546,0.02c1.889,0,3.716-0.713,5.109-2.008c1.527-1.42,2.395-3.411,2.395-5.496v-0.31
			c9.598,9.849,22.991,15.982,37.796,15.982c29.117,0,52.804-23.689,52.804-52.804C430.205,50.467,406.518,26.777,377.402,26.777z
			 M377.403,117.375c-20.841,0-37.796-16.955-37.796-37.796s16.954-37.796,37.796-37.796c20.841,0,37.796,16.955,37.796,37.796
			S398.244,117.375,377.403,117.375z"/>
	</g>
</g>
<g>
	<g>
		<path d="M442.31,335.928c38.427,0,69.69-31.263,69.69-69.691c0-38.428-31.263-69.691-69.69-69.691
			c-4.145,0-7.504,3.359-7.504,7.504s3.359,7.504,7.504,7.504c30.152,0,54.681,24.531,54.681,54.682s-24.53,54.682-54.681,54.682
			h-94.693V211.554h46.614c4.145,0,7.504-3.359,7.504-7.504s-3.359-7.504-7.504-7.504h-46.614v-11.087
			c0-4.145-3.359-7.504-7.504-7.504h-58.302c-4.145,0-7.504,3.359-7.504,7.504s3.359,7.504,7.504,7.504h50.797v277.252H183.55
			V192.963h21.127c4.145,0,7.504-3.359,7.504-7.504s-3.359-7.504-7.504-7.504h-28.631c-4.145,0-7.504,3.359-7.504,7.504V320.92
			H75.696c-38.428,0-69.691,31.263-69.691,69.69c0,38.428,31.263,69.691,69.691,69.691h68.391c4.145,0,7.504-3.359,7.504-7.504
			c0-4.145-3.359-7.504-7.504-7.504H75.696c-30.152,0-54.682-24.531-54.682-54.682s24.531-54.682,54.682-54.682h92.846v141.79
			c0,4.145,3.359,7.504,7.504,7.504h164.068c4.145,0,7.504-3.359,7.504-7.504v-19.34h114.24c4.145,0,7.504-3.359,7.504-7.504
			c0-4.145-3.359-7.504-7.504-7.504h-114.24V335.928H442.31z"/>
	</g>
</g>
<g>
</g>
<g>
</g>
<g>
</g>
<g>
</g>
<g>
</g>
<g>
</g>
<g>
</g>
<g>
</g>
<g>
</g>
<g>
</g>
<g>
</g>
<g>
</g>
<g>
</g>
<g>
</g>
<g>
</g>
</svg>
