<svg xmlns="http://www.w3.org/2000/svg" xmlns:xlink="http://www.w3.org/1999/xlink" width="70" height="49" viewBox="0 0 70 49"><defs><path id="a" d="M746.89 7336.53a17.02 17.02 0 0 1 3.55 10.47c0 9.5-7.78 17.24-17.36 17.24a17.32 17.32 0 0 1-17.36-17.24c0-9.51 7.8-17.25 17.36-17.25 3.85 0 7.49 1.22 10.53 3.53.48.37.57 1.04.2 1.52-.36.47-1.04.56-1.51.2a15.11 15.11 0 0 0-9.22-3.1 15.16 15.16 0 0 0-15.19 15.1c0 8.32 6.82 15.09 15.2 15.09 8.37 0 15.18-6.77 15.18-15.1 0-3.33-1.07-6.5-3.1-9.15a1.07 1.07 0 0 1 .2-1.5 1.09 1.09 0 0 1 1.52.2zm9.34 10.47a23.1 23.1 0 0 1-23.15 23 23.1 23.1 0 0 1-23.14-23 23.1 23.1 0 0 1 23.14-23 23.1 23.1 0 0 1 23.15 23zm-2.17 0c0-11.5-9.41-20.84-20.98-20.84a20.93 20.93 0 0 0-20.97 20.84c0 11.49 9.4 20.84 20.97 20.84a20.93 20.93 0 0 0 20.98-20.84zm-45.2-21.92V7338a5.4 5.4 0 0 1-4.35 5.28v25.62a1.08 1.08 0 1 1-2.17 0v-25.62a5.4 5.4 0 0 1-4.34-5.28v-12.93c0-.6.49-1.08 1.09-1.08.6 0 1.08.48 1.08 1.08v8.98h2.17v-8.98c0-.6.49-1.08 1.09-1.08.6 0 1.08.48 1.08 1.08v8.98h2.17v-8.98c0-.6.49-1.08 1.09-1.08.6 0 1.08.48 1.08 1.08zm-2.18 12.93v-1.8h-6.5v1.8a3.25 3.25 0 0 0 6.5 0zm59.31-12.93v43.83a1.08 1.08 0 1 1-2.17 0v-18.68h-3.25c-.6 0-1.09-.48-1.09-1.08v-19.76a5.41 5.41 0 0 1 5.43-5.39c.6 0 1.08.48 1.08 1.08zm-2.17 1.26a3.24 3.24 0 0 0-2.17 3.05v18.68h2.17z"/></defs><g transform="translate(-697 -7322)"><use fill="#00c6ff" xlink:href="#a"/></g></svg>