<svg xmlns="http://www.w3.org/2000/svg" xmlns:xlink="http://www.w3.org/1999/xlink" width="52" height="52" viewBox="0 0 52 52"><defs><path id="a" d="M1418.5 5461.79a3.76 3.76 0 0 1-3.75 3.76 3.76 3.76 0 0 1 0-7.53 3.76 3.76 0 0 1 3.75 3.77zm-1.67 0c0-1.16-.93-2.1-2.08-2.1a2.09 2.09 0 0 0 0 4.19c1.15 0 2.08-.94 2.08-2.1zm30.84-2.1a.84.84 0 1 1 0 1.68.84.84 0 0 1 0-1.68zm-3.34 0c.46 0 .84.38.84.84a.84.84 0 1 1-.84-.84zm5 2.52a.84.84 0 1 1-.83.83c0-.46.37-.83.83-.83zm-3.33 0a.84.84 0 1 1-.83.83c0-.46.37-.83.83-.83zm-5-2.52a.84.84 0 1 1 0 1.68.84.84 0 0 1 0-1.68zm1.67 2.52a.84.84 0 1 1-.83.83c0-.46.37-.83.83-.83zm-5-2.52c.46 0 .83.38.83.84a.84.84 0 1 1-.83-.84zm1.66 2.52a.84.84 0 1 1-.83.83c0-.46.37-.83.83-.83zm-5-2.52a.84.84 0 1 1 0 1.68.84.84 0 0 1 0-1.68zm1.67 2.52a.84.84 0 1 1-.83.83c0-.46.37-.83.83-.83zm-17.5 15.47a3.76 3.76 0 0 1-3.75 3.77 3.76 3.76 0 0 1 0-7.53 3.76 3.76 0 0 1 3.75 3.76zm-1.67 0c0-1.15-.93-2.09-2.08-2.09a2.09 2.09 0 0 0 0 4.19c1.15 0 2.08-.94 2.08-2.1zm1.67 15.9a3.76 3.76 0 0 1-3.75 3.77 3.76 3.76 0 0 1 0-7.53 3.76 3.76 0 0 1 3.75 3.76zm-1.67 0c0-1.15-.93-2.09-2.08-2.09a2.09 2.09 0 0 0 0 4.18c1.15 0 2.08-.93 2.08-2.09zm36.12-23.1c1.6.84 2.68 1.87 2.97 3.1.05.1.08.21.08.34v23.22c0 .13-.03.26-.09.37-.9 3.6-8.52 5.48-15.74 5.48-2.42 0-4.87-.21-7.1-.62h-23.23a3.85 3.85 0 0 1-3.84-3.86v-9.86c0-1.23.59-2.31 1.48-3.02a3.84 3.84 0 0 1-1.48-3.02v-9.86c0-1.22.59-2.3 1.48-3.02a3.84 3.84 0 0 1-1.48-3.01v-9.86a3.85 3.85 0 0 1 3.84-3.86h42.32a3.85 3.85 0 0 1 3.84 3.86v9.86c0 1.85-1.31 3.4-3.05 3.77zm-43.1 14.32h14.48v-10.88c0-.13.03-.24.08-.35.28-1.18 1.3-2.19 2.81-3h-17.38c-1.2 0-2.17.98-2.17 2.18v9.86c0 1.2.97 2.19 2.17 2.19zm16.18-7.67l-.03-.02v4.15c.02.1.04.22.02.33l-.02.17c0 .1.03.18.05.28a1.44 1.44 0 0 0 .16.4 2.44 2.44 0 0 0 .44.56c1.77 1.71 6.97 3.26 13.52 3.26 6.54 0 11.75-1.55 13.51-3.26l.1-.1a2.66 2.66 0 0 0 .34-.45 1.72 1.72 0 0 0 .16-.4c.03-.1.05-.2.05-.29 0-.06 0-.12-.02-.18-.01-.1 0-.2.02-.3v-4.17l-.03.02c-.16.12-.32.24-.5.35l-.1.07c-.16.1-.3.19-.47.27l-.13.08-.6.3-.11.05c-.19.08-.37.17-.57.24l-.17.07a16.15 16.15 0 0 1-1.46.5l-.2.07a19.83 19.83 0 0 1-1.6.41l-.22.05-.72.15-.15.03-.86.15-.21.03-.74.1-.2.03-.9.1-.18.02-.77.07-.23.02-.92.06h-.13l-.82.04h-.24l-.94.01h-.93l-.24-.01-.82-.04h-.13l-.92-.06-.23-.02-.77-.07-.18-.01-.9-.1-.2-.04-.74-.1-.2-.03-.87-.15-.15-.03-.72-.15-.21-.05a24.54 24.54 0 0 1-1.61-.41l-.2-.06a20.9 20.9 0 0 1-.71-.23l-.04-.01-.71-.27-.17-.07c-.2-.07-.39-.16-.57-.24l-.1-.05-.6-.3-.14-.08-.46-.27-.12-.07a7.79 7.79 0 0 1-.49-.35zm28.25 12.44c.03-.1.05-.18.05-.28l-.01-.18c-.02-.1 0-.2.01-.3v-4.17l-.11.08a8.62 8.62 0 0 1-.61.41c-1.77 1.1-4.35 1.88-7.24 2.33h-.03c-.86.14-1.75.24-2.65.32l-.55.05a31.28 31.28 0 0 1-1.32.07l-.44.01a41.8 41.8 0 0 1-2.43 0l-.44-.01a45.5 45.5 0 0 1-1.31-.07l-.57-.05c-.89-.08-1.77-.18-2.62-.32h-.06a21.53 21.53 0 0 1-6.77-2.06 10.44 10.44 0 0 1-1.07-.68l-.11-.08v4.26c.01.07.03.14.02.21l-.01.12v.1a1.45 1.45 0 0 0 .2.64 1.99 1.99 0 0 0 .34.45l.1.11c1.77 1.71 6.97 3.26 13.52 3.26 6.54 0 11.75-1.55 13.51-3.26a5.12 5.12 0 0 0 .44-.55 1.7 1.7 0 0 0 .16-.4zm-44.44 11.12h17.79a10.4 10.4 0 0 1-1.04-.58l-.05-.03a6.58 6.58 0 0 1-1.59-1.46 3.68 3.68 0 0 1-.32-.55l-.05-.1h-.25v-11.5h-14.49c-1.2 0-2.17.98-2.17 2.18v9.86c0 1.2.97 2.18 2.17 2.18zm44.5-8.52l-.12.08a6.49 6.49 0 0 1-.61.42c-1.77 1.09-4.35 1.87-7.24 2.32h-.03c-.86.14-1.75.25-2.65.32l-.56.05a31.29 31.29 0 0 1-1.3.07l-.45.02a41.8 41.8 0 0 1-2.43 0l-.44-.02a28.42 28.42 0 0 1-1.31-.07l-.57-.05c-.9-.08-1.77-.18-2.62-.31l-.06-.01a21.6 21.6 0 0 1-6.77-2.06 10.38 10.38 0 0 1-1.07-.68l-.1-.07v4.82c.02.1.06.2.1.31l.08.16c.64 1.12 2.94 2.45 7.08 3.24 2 .38 4.33.61 6.9.61 8.04 0 13.8-2.23 14.15-4.32l.01-.08zm-6.67-21.68c-.4-.1-.82-.17-1.25-.24l-.35-.06a40.49 40.49 0 0 0-11.81 0l-.34.05-1.26.25c-1.32.28-2.48.62-3.45 1l-.13.06a12.2 12.2 0 0 0-1.17.56 4.5 4.5 0 0 0-1.7 1.45v.02a1.56 1.56 0 0 0-.21.65c0 2.13 6.06 4.5 14.17 4.5 8.1 0 14.16-2.37 14.16-4.5 0-1.38-2.6-2.88-6.66-3.74zm6.66-13.63c0-1.2-.97-2.18-2.17-2.18h-42.32c-1.2 0-2.17.97-2.17 2.18v9.86c0 1.2.97 2.18 2.17 2.18h22.2l.14-.03a30 30 0 0 1 1.68-.32l.17-.02a40.16 40.16 0 0 1 12.27 0l.17.02c.57.1 1.13.2 1.68.32l.15.03h3.86c1.2 0 2.17-.98 2.17-2.18z"/></defs><g transform="translate(-1405 -5452)"><use fill="#00c6ff" xlink:href="#a"/></g></svg>