<svg xmlns="http://www.w3.org/2000/svg" xmlns:xlink="http://www.w3.org/1999/xlink" width="53" height="53" viewBox="0 0 53 53"><defs><path id="a" d="M1140.3 5477.5a.8.8 0 0 1-.79.8h-8.2a44.82 44.82 0 0 1-1.57 11.24h5.38a.8.8 0 1 1 0 1.6h-5.86a25.13 25.13 0 0 1-3.26 6.66.8.8 0 0 1-1.1.19.8.8 0 0 1-.2-1.12 23.02 23.02 0 0 0 2.88-5.73h-8.28v7.37a.8.8 0 1 1-1.6 0v-7.37h-8.28c.78 2.2 1.74 4.15 2.87 5.73a.8.8 0 0 1-1.3.93c-1.3-1.82-2.4-4.1-3.25-6.66h-5.86a.8.8 0 1 1 0-1.6h5.38a44.83 44.83 0 0 1-1.58-11.24h-8.19a.8.8 0 1 1 0-1.6h8.2c.06-3.98.61-7.83 1.57-11.24h-5.38a.8.8 0 1 1 0-1.6h5.86a25.16 25.16 0 0 1 3.25-6.66.8.8 0 0 1 1.3.92 23.01 23.01 0 0 0-2.87 5.74h8.28v-7.37a.8.8 0 0 1 1.6 0v7.37h8.27a23.01 23.01 0 0 0-2.86-5.74.8.8 0 0 1 1.3-.93c1.3 1.83 2.4 4.1 3.25 6.67h5.86a.8.8 0 1 1 0 1.6h-5.38c.96 3.4 1.51 7.26 1.58 11.24h8.19c.44 0 .8.36.8.8zm-21-12.04v11.24h10.42a42.9 42.9 0 0 0-1.63-11.24zm-12.02 11.24h10.42v-11.24h-8.79a42.9 42.9 0 0 0-1.63 11.24zm10.42 12.84v-11.24h-10.42a42.9 42.9 0 0 0 1.63 11.24zm12.02-11.24h-10.42v11.24h8.79a42.9 42.9 0 0 0 1.63-11.24zm13.78-.8c0 6.68-2.6 12.95-7.32 17.68a24.84 24.84 0 0 1-17.68 7.32c-4.92 0-9.67-1.43-13.76-4.13l-9.16 3.06a.8.8 0 0 1-1.01-1.01l3.05-9.16a24.87 24.87 0 0 1-4.12-13.76c0-6.68 2.6-12.96 7.32-17.68 4.72-4.72 11-7.32 17.68-7.32s12.96 2.6 17.68 7.32c4.72 4.72 7.32 11 7.32 17.68zm-1.6 0c0-12.9-10.5-23.4-23.4-23.4a23.43 23.43 0 0 0-19.34 36.58c.14.21.18.47.1.7l-2.67 8.03 8.02-2.67a.81.81 0 0 1 .7.1 23.43 23.43 0 0 0 36.59-19.34z"/></defs><g transform="translate(-1092 -5451)"><use fill="#00c6ff" xlink:href="#a"/></g></svg>