<svg xmlns="http://www.w3.org/2000/svg" xmlns:xlink="http://www.w3.org/1999/xlink" width="43" height="43" viewBox="0 0 43 43"><defs><path id="a" d="M1049.81 1761.12v2.89a2 2 0 0 1-1.99 1.99h-14.65a2 2 0 0 1-1.98-2v-2.88a2 2 0 0 1 1.88-1.99v-2.63c0-.35.28-.63.63-.63h.9v-.94c-4.04-.48-14.74-1.84-17.24-2.93-2.22-.98-2.83-2.32-2.98-3.14h-2.4a2 2 0 0 1 0-3.98h1.24a17.06 17.06 0 0 1 14.51-14.18 2.9 2.9 0 1 1 4.54 0c7.34 1 13.31 6.72 14.51 14.18h1.23a2 2 0 0 1 0 3.98h-3.16c.33.48.53 1.07.53 1.7v5.31h1.92c.34 0 .62.28.62.63v2.63a2 2 0 0 1 1.9 2zm-21.45-32.22c0 .9.74 1.65 1.64 1.65a1.64 1.64 0 0 0 0-3.3c-.9 0-1.64.74-1.64 1.65zm-13.87 15.98h31.02a15.79 15.79 0 0 0-15.51-13.07c-7.66 0-14.2 5.57-15.5 13.07zm33.52 2.73a.74.74 0 0 0 0-1.47H1012a.73.73 0 0 0 0 1.47zm-12.7 6.14c.31.04.55.3.55.63v1.49h8.27v-5.31c0-.93-.76-1.7-1.69-1.7h-26.77c.17.52.68 1.32 2.2 1.98 1.95.86 10.29 2.07 17.44 2.91zm13.25 10.26v-2.89c0-.4-.33-.73-.74-.73h-9.11a.63.63 0 0 1 0-1.26h7.96v-2h-12.34v2h2.4a.63.63 0 1 1 0 1.26h-3.56c-.4 0-.73.33-.73.73v2.89c0 .4.33.73.73.73h14.65c.4 0 .74-.33.74-.73z"/></defs><g transform="translate(-1008 -1724)"><use fill="#00c6ff" xlink:href="#a"/></g></svg>